<svg version="1.1" xmlns="http://www.w3.org/2000/svg" xmlns:xlink="http://www.w3.org/1999/xlink" x="0px" y="0px"
     viewBox="0 0 300 75">
    <g>
        <g>
            <path fill="#FFFFFF" d="M245.2,46.7c2.5-0.3,5-1.2,7.3-2.5c1.8-1.1,3.4-2.5,4.7-4.2c1.1-1.6,2-3.2,2.5-5.1c0.5-1.7,0.7-3.6,0.7-5.3
			c0-2.6-0.5-5.1-1.4-7.6c-0.9-2.2-2.2-4.1-3.9-5.6c-1.7-1.5-3.7-2.6-5.9-3.4c-2.3-0.7-4.8-1.2-7.3-1.1h-18.2v51.5h8.6V20.7h9.5
			c3.2,0,5.7,0.7,7.3,2.2c1.7,1.6,2.5,3.7,2.5,6.7c0,3.1-1.1,5.5-3.2,7.1c-2.2,1.6-5.7,2.5-10.2,3c-3.4,0.3-5.2,1.8-5.2,4.6
			c0,0.7,0.2,1.6,0.6,2.2c0.5,0.9,1.1,1.7,1.7,2.3l13.1,14.4h12.2L245.2,46.7z M194.7,20.7c2.2,0,4.5,0.5,6.6,1.2
			c2,0.7,3.7,2,5.2,3.6c1.4,1.6,2.7,3.4,3.4,5.5c0.7,2.2,1.2,4.5,1.2,6.9s-0.3,4.5-1.1,6.7c-0.7,2-1.8,3.7-3.2,5.3s-3.2,2.6-5.2,3.4
			c-2.2,0.9-4.4,1.2-6.7,1.2h-1.4c-2.3,0-4.5-0.5-6.6-1.2c-1.8-0.7-3.7-2-5.2-3.4c-1.4-1.6-2.7-3.2-3.2-5.3
			c-0.7-2.2-1.2-4.3-1.2-6.7s0.3-4.6,1.2-6.9c0.7-2,1.8-3.9,3.4-5.5c1.4-1.6,3.2-2.6,5.2-3.6c2-0.7,4.2-1.2,6.6-1.2H194.7z
			 M194.7,63.4c3.4,0,6.9-0.7,10-2c3-1.2,5.6-3.2,7.8-5.6c2.2-2.5,4.1-5.3,5.2-8.4c1.2-3.2,1.8-6.9,1.8-10.4c0-3.4-0.7-6.9-1.7-10.1
			c-1.1-3-2.8-5.7-5-8.1s-4.8-4.1-7.8-5.3c-3.2-1.2-6.7-1.9-10.2-1.9h-1.4c-3.4,0-6.8,0.6-10.2,1.9c-3,1.2-5.7,3-7.8,5.3
			s-3.9,5-5,8.1c-1.2,3.2-1.8,6.7-1.8,10.3c0,3.6,0.7,6.9,1.8,10.4c1.1,3.1,3,5.9,5.2,8.4c2.2,2.3,4.8,4.3,7.8,5.5
			c3.2,1.4,6.6,2,10,2L194.7,63.4L194.7,63.4z M169.1,20.7V12h-33.9v8.9h12.6v42.5h8.6V20.7H169.1z M111,20.7c2.2,0,4.5,0.5,6.6,1.2
			c2,0.7,3.7,2,5.2,3.6c1.4,1.6,2.7,3.4,3.4,5.5c0.7,2.2,1.2,4.5,1.2,6.9s-0.3,4.5-1.1,6.7c-0.7,2-1.8,3.7-3.2,5.3
			c-1.4,1.6-3.2,2.6-5.2,3.4c-2.2,0.9-4.4,1.2-6.7,1.2h-1.4c-2.3,0-4.5-0.5-6.6-1.2c-1.8-0.7-3.7-2-5.2-3.4
			c-1.4-1.6-2.7-3.2-3.2-5.3c-0.7-2.2-1.2-4.3-1.2-6.7s0.3-4.6,1.2-6.9c0.7-2,1.8-3.9,3.4-5.5c1.4-1.6,3.2-2.6,5.2-3.6
			c1.8-0.7,4.1-1.2,6.2-1.2H111z M111,63.4c3.4,0,6.9-0.7,10-2c3-1.2,5.7-3.2,7.8-5.6c2.2-2.5,4.1-5.3,5.2-8.4
			c1.2-3.2,1.8-6.9,1.8-10.4c0-3.4-0.7-6.9-1.7-10.1c-1.1-3-2.8-5.7-5-8.1c-2.2-2.4-4.8-4.1-7.8-5.3c-3.2-1.2-6.7-1.9-10.2-1.9h-1.4
			c-3.4,0-6.8,0.6-10.2,1.9c-3,1.2-5.6,3-7.8,5.3c-2.2,2.3-3.9,5-5,8.1c-1.2,3.2-1.8,6.7-1.8,10.3c0,3.6,0.7,6.9,1.8,10.4
			c1.1,3.1,3,5.9,5.2,8.4c2.2,2.3,4.8,4.3,7.8,5.5c3.2,1.4,6.6,2,10,2L111,63.4z M10.8,63.4h10.3l21.1-34.9v29
			c0,0.7,0.2,1.6,0.5,2.3s0.7,1.2,1.2,1.8c0.5,0.5,1.1,0.9,1.7,1.2c0.6,0.3,1.4,0.5,2.2,0.5c0.9,0,1.9-0.2,2.7-0.7
			c0.9-0.7,1.8-1.4,2.3-2.5L72,28.3v34.9h8.6V16c0-1.2-0.3-2.3-0.9-3.2c-0.8-0.7-1.8-1.2-2.9-1.2c-0.9,0-1.8,0.2-2.8,0.6
			c-1,0.4-1.7,1.2-2.2,2l-21,33.1V16c0-1.2-0.3-2.3-0.9-3.2c-0.7-0.7-1.6-1.2-2.7-1.2c-0.9,0-1.9,0.2-2.7,0.6
			c-0.9,0.5-1.7,1.2-2.2,2L10.8,63.4z"></path>
        </g>
    </g>
</svg>